BBC Proms 2012 - 59. The Broadway Sound

Gershwin - Funny Face (6 mins)
Cole Porter - Kiss Me, Kate (6 mins)
Kern - Show Boat (14 mins)
Rodgers - On Your Toes (9 mins)
Meredith Wilson - The Music Man (4 mins)
Rodgers - The Boys from Syracuse (3 mins)
Rodgers - South Pacific (3 mins)
Richard Adler - The Pajama Game - Seven and a Half Cents (6 mins)
Loewe - Camelot (4 mins)
Frank Loesser - Guys and Dolls (3 mins)
Frank Loesser - The Most Happy Fella (4 mins)
Bernstein - On The Town (6 mins)
Gershwin - Porgy and Bess (6 mins)
Jerry Bock - Fiorello! (4 mins)
Rodgers - Allegro (4 mins)
Bernstein - West Side Story (7 mins)
Jule Styne - Funny Girl (3 mins)
Jerry Herman - Mame (6 mins)
Jerry Herman - Mack & Mabel (6 mins)

Sierra Boggess soprano
Anna-Jane Casey vocalist
Rodney Earl Clarke bass-baritone
Elizabeth Llewellyn soprano
Seth MacFarlane baritone
Julian Ovenden tenor
John Wilson Orchestra
Maida Vale Singers
Maida Vale Singers (men's voices)
Maida Vale Singers (women's voices)
John Wilson conductor

After last year's celebration of the Hollywood screen musical, John Wilson and his high-octane orchestra - whose technicoloured performances, according to one critic, offer `the auditory equivalent of a steam-clean' - present a tribute to the composers and arrangers responsible for creating the Broadway Sound - among them such legendary tunesmiths as Jerome Kern, Cole Porter, Irving Berlin, Vincent Youmans, Richard Rodgers and Frank Loesser.

With a cast of leading soloists, the concert includes excerpts from Show Boat, No, No, Nanette, On Your Toes, Kiss Me, Kate and Annie Get Your Gun.

Video
ID                                       : 1
Format                                   : AVC
Format/Info                              : Advanced Video Codec
Format profile                           : High@L4.1
Format settings, CABAC                   : Yes
Format settings, ReFrames                : 6 frames
Codec ID                                 : avc1
Codec ID/Info                            : Advanced Video Coding
Duration                                 : 1h 59mn
Bit rate mode                            : Variable
Bit rate                                 : 2 581 Kbps
Maximum bit rate                         : 3 500 Kbps
Width                                    : 1 280 pixels
Height                                   : 720 pixels
Display aspect ratio                     : 16:9
Frame rate mode                          : Constant
Frame rate                               : 25.000 fps
Standard                                 : PAL
Color space                              : YUV
Chroma subsampling                       : 4:2:0
Bit depth                                : 8 bits
Scan type                                : Progressive
Bits/(Pixel*Frame)                       : 0.112
Stream size                              : 2.15 GiB (96%)

Audio
ID                                       : 2
Format                                   : AAC
Format/Info                              : Advanced Audio Codec
Format profile                           : HE-AAC / LC
Codec ID                                 : 40
Duration                                 : 1h 59mn
Bit rate mode                            : Constant
Bit rate                                 : 96.0 Kbps
Channel(s)                               : 2 channels
Channel positions                        : Front: L R
Sampling rate                            : 48.0 KHz / 24.0 KHz
Compression mode                         : Lossy
Stream size                              : 80.7 MiB (4%)
